<svg xmlns="http://www.w3.org/2000/svg" viewBox="0 0 48 48">
  <path d="M23.999 10c-6.4 0-10.4 3.2-12 9.6 2.4-3.2 5.2-4.4 8.4-3.6 1.826.456 3.131 1.781 4.576 3.247 2.353 2.388 5.076 5.153 11.024 5.153 6.4 0 10.4-3.2 12-9.6-2.4 3.2-5.2 4.4-8.4 3.6-1.826-.456-3.13-1.782-4.575-3.247C32.671 12.764 29.948 10 23.999 10Zm-12 14.4C5.6 24.4 1.6 27.6 0 34c2.4-3.2 5.2-4.4 8.4-3.6 1.826.457 3.13 1.78 4.575 3.247 2.353 2.388 5.076 5.152 11.024 5.152 6.4 0 10.4-3.2 12-9.6-2.4 3.2-5.2 4.4-8.4 3.6-1.825-.456-3.13-1.78-4.575-3.246C20.672 27.164 17.948 24.4 12 24.4Z"/>
</svg>
