<svg xmlns="http://www.w3.org/2000/svg" viewBox="0 0 320 320">
  <rect width="320" height="320" rx="64" fill="#000"/>
  <g transform="translate(82 70) scale(0.72)" fill="#fff">
    <path d="M0.002905 104.999C0.00290969 105.003 0.00291469 105.001 0.00291442 105.005C0.00290556 105.135 -0.00319774 194.833 0.00291443 198.005C0.00903103 201.179 0.287976 204.351 2.53275 206.595L44.7821 248.844C48.5579 252.62 54.9926 250.345 55.0029 245.005V152.005C55.0091 148.814 53.9455 145.636 51.6894 143.38L9.08128 100.772C5.29898 96.9892 -0.00337788 99.6519 0.002905 104.999Z"/>
    <path d="M74.0029 56.0049V188.005C74.0075 191.182 74.7888 194.137 77.035 196.383L119.275 238.622C123.052 242.399 129.995 239.346 130.003 234.005V103.005C130.007 99.8163 128.446 96.4967 126.191 94.242L83.5737 51.6243C79.7909 47.8415 73.9952 50.6553 74.0029 56.0049Z"/>
    <path d="M148.003 6.00488V161.005C148.007 164.182 148.836 167.602 151.082 169.848L206.068 224.833C209.845 228.611 215.996 225.847 216.003 220.505L216.003 65.5049C216.007 62.3171 215.242 59.399 212.988 57.1449L157.618 1.77432C153.835 -2.00801 147.996 0.655866 148.003 6.00488Z"/>
  </g>
</svg>
